<?xml version="1.0" encoding="utf-8"?>
<!-- Generator: Adobe Illustrator 17.0.0, SVG Export Plug-In . SVG Version: 6.00 Build 0)  -->
<!DOCTYPE svg PUBLIC "-//W3C//DTD SVG 1.1//EN" "http://www.w3.org/Graphics/SVG/1.1/DTD/svg11.dtd">
<svg version="1.1" id="Layer_1" xmlns="http://www.w3.org/2000/svg" xmlns:xlink="http://www.w3.org/1999/xlink" x="0px" y="0px"
	 width="1000px" height="1000px" viewBox="0 0 1000 1000" enable-background="new 0 0 1000 1000" xml:space="preserve">
<g id="Layer_1_1_">
	<g>
		<g>
			<text transform="matrix(1 0 0 1 -1925.0934 -255.9944)" fill="#FFCC33" font-family="'NexaBold'" font-size="349.322">Plato</text>
			<circle fill="#FFCC33" stroke="#FFFFFF" stroke-width="7.9391" stroke-miterlimit="10" cx="-1167.691" cy="-341.92" r="61.649"/>
		</g>
		<g>
			<path fill="none" stroke="#FFFFFF" stroke-width="4.1019" stroke-miterlimit="10" d="M-1175.651-324.644
				c0,0-3.129,0.966-5.289,1.056"/>
			<g>
				<path fill="none" stroke="#FFFFFF" stroke-width="4.1019" stroke-miterlimit="10" d="M-1172.33-355.509
					c-13.115-8.083-24.144,0-24.144,0s-1.901,34.452,12.073,47.97C-1170.431-321.057-1172.33-355.509-1172.33-355.509z"/>
				<path fill="none" stroke="#FFFFFF" stroke-width="4.1019" stroke-miterlimit="10" d="M-1196.499-347.425
					c0,0,4.985,0.796,8.967,0.707"/>
				<path fill="none" stroke="#FFFFFF" stroke-width="4.1019" stroke-miterlimit="10" d="M-1172.559-342.48
					c0,0-4.177,1.15-8.712,1.15"/>
				<path fill="none" stroke="#FFFFFF" stroke-width="4.1019" stroke-miterlimit="10" d="M-1195.302-333.857
					c0,0,3.486,1.36,7.752,1.36"/>
				<path fill="none" stroke="#FFFFFF" stroke-width="4.1019" stroke-miterlimit="10" d="M-1184.492-359.446
					c-2.322-0.322-13.649-2.13-15.293-6.777c7.323,0.166,13.168,1.967,15.531,6.475
					C-1184.192-359.63-1184.225-359.408-1184.492-359.446z"/>
				<path fill="none" stroke="#FFFFFF" stroke-width="4.1019" stroke-miterlimit="10" d="M-1183.736-359.713
					c1.807-1.583,10.325-8.721,15.117-7.023c-4.733,5.303-9.868,8.494-15.018,7.432
					C-1183.784-359.335-1183.958-359.518-1183.736-359.713z"/>
				<path fill="none" stroke="#FFFFFF" stroke-width="4.1019" stroke-miterlimit="10" d="M-1183.646-360.564
					c-0.129-1.949-0.671-13.236,3.853-15.757c1.312,6.848,0.654,12.659-3.471,15.782
					C-1183.382-360.45-1183.634-360.379-1183.646-360.564z"/>
			</g>
		</g>
		<g>
			<path fill="none" stroke="#FFFFFF" stroke-width="4.1019" stroke-miterlimit="10" d="M-1134.853-332.275
				c0,0-5.045-15.754-5.25-21.492h-0.1c0.006,0.661,0.04,4.601,0.04,9.674c-4.249-1.142-7.076-7.349-7.843-9.238
				c-0.142-0.344-0.28-0.227-0.312-0.071c-1.111,5.216-2.501,6.205-5.44,9.309c-2.565-1.475-3.867-7.903-4.146-9.448
				c-0.039-0.214-0.213-0.105-0.291,0.008c-3.745,5.42-8.131,7.662-8.131,7.662v-7.897h-0.078
				c-0.206,5.739-5.274,21.492-5.274,21.492s-0.932,3.94-0.932,6.052c0,10.904,8.661,19.744,19.344,19.744
				c10.684,0,19.346-8.839,19.346-19.744C-1133.918-328.335-1134.251-330.367-1134.853-332.275z"/>
			<path fill="none" stroke="#FFFFFF" stroke-width="4.1019" stroke-miterlimit="10" d="M-1140.188-353.768v-3.403
				c0-5.199-4.724-9.412-10.548-9.412h-5.056c-5.824,0-10.548,4.213-10.548,9.412v3.403"/>
			<path fill="none" stroke="#FFFFFF" stroke-width="4.1019" stroke-miterlimit="10" d="M-1153.263-366.582
				c0,0-1.127-8.68,7.931-8.68"/>
			<path fill="none" stroke="#FFFFFF" stroke-width="4.1019" stroke-miterlimit="10" d="M-1142.363-330.124
				c0,0,1.178,10.9-6.756,14.918"/>
		</g>
	</g>
</g>
<g id="Layer_2">
	<g>
		<g>
			<path fill="#FFCC33" d="M-1017.619,205.939h-69.165v71.96h-46.11V33.375c38.425,0,76.85-0.35,115.275-0.35
				C-898.152,33.026-897.803,205.939-1017.619,205.939z M-1086.784,163.671h69.165c59.035,0,58.686-86.631,0-86.631h-69.165V163.671
				z"/>
			<path fill="#FFCC33" d="M-857.631,33.725v244.174h-42.268V33.725H-857.631z"/>
			<path fill="#FFCC33" d="M-683.671,105.685h40.87v172.214h-40.172l-2.096-25.151c-9.781,20.261-36.678,30.042-55.891,30.392
				c-51,0.349-88.727-31.09-88.727-91.522c0-59.384,39.473-90.474,89.775-90.124c23.055,0,45.062,10.829,54.843,27.945
				L-683.671,105.685z M-787.069,191.617c0,32.836,22.706,52.398,51,52.398c67.069,0,67.069-104.446,0-104.446
				C-764.364,139.569-787.069,158.781-787.069,191.617z"/>
			<path fill="#FFCC33" d="M-554.073,57.129v48.905h47.508v36.679h-47.857v74.405c0,16.418,9.083,24.452,22.356,24.452
				c6.638,0,14.322-2.096,20.61-5.24l11.877,36.329c-12.227,4.891-22.356,6.987-35.281,7.336
				c-37.378,1.397-61.83-19.911-61.83-62.877v-74.405h-32.137v-36.679h32.137V61.67L-554.073,57.129z"/>
		</g>
		<g>
			<g>
				<g>
					<path fill="#FFCC33" d="M-418.876,181.27c-0.031,1.076-0.061,2.911-0.017,5.262c1.787,0.226,4.645,0.518,7.071,0.455
						l0.092,4.199c-0.229,0.005-0.461,0.007-0.695,0.007c-2.216,0-4.587-0.215-6.32-0.416c0.152,2.966-0.062,6.352,0.423,9.886
						c1.287,0.369,2.545,0.884,5.545,0.884v4.199c-1,0-3.35-0.266-4.819-0.577c1.447,7.743,4.259,15.632,8.778,20.958
						c2.677-3.153,4.791-7.203,6.271-11.587c-0.84,0.161-1.662,0.291-2.454,0.324l-0.145-4.195c1.211-0.051,2.945-0.45,4.059-0.75
						c1.178-4.665,1.683-9.479,2.094-13.84c-1.747,0.312-4.784,0.624-6.784,0.624v-4.199c2,0,5.563-0.443,7.123-0.767
						c0.28-4.796,0.334-8.625,0.283-10.423c-3.333-1.863-6.75-2.807-10.27-2.807C-413.533,178.508-417.279,180.347-418.876,181.27z"
						/>
				</g>
				<g>
					<path fill="#FFCC33" d="M-365.777,179.765v-1.379c0-4.155-3.53-7.523-8.327-7.523h-5.176c-4.797,0-8.497,3.368-8.497,7.523
						v2.27v1.213v4.034c2-1.157,2.892-2.8,4.404-4.987c0.441-0.647,1.115-1.04,1.873-1.04c1.085,0,1.955,0.765,2.149,1.859
						c0.516,2.863,1.349,5.469,2.192,6.976c1.833-1.936,2.679-3.126,3.483-6.906c0.213-1.06,1.108-1.818,2.176-1.818
						c0.354,0,1.551,0.111,2.135,1.532c0.901,2.218,2.327,4.794,3.981,6.489c-0.01-3.281-0.296-5.619-0.301-6.119L-365.777,179.765z
						"/>
					<path fill="#FFCC33" d="M-359.847,204.507c-0.114-0.359-1.647-5.162-3.061-10.458l-0.917-0.247
						c-3.182-0.855-5.605-3.685-7.256-6.372c-0.955,2.004-2.153,3.247-3.74,4.898l-1.989,2.092l-1.435-0.825
						c-2.097-1.207-3.459-4.214-4.316-7.087c-3.312,3.634-6.387,5.234-6.548,5.316L-390,192.28
						c-1.464,5.695-3.253,11.329-3.517,12.155c-0.262,1.124-0.88,4.103-0.88,5.634c0,9.988,7.943,18.115,17.705,18.115
						c9.763,0,17.707-8.127,17.707-18.115C-358.986,208.186-359.276,206.314-359.847,204.507z M-371.5,223.224l-1.898-3.747
						c6.707-3.395,5.788-13.082,5.777-13.179l4.176-0.447C-363.388,206.366-362.189,218.509-371.5,223.224z"/>
				</g>
			</g>
			<g>
				<path fill="#FFCC33" d="M-392.171,133.531c-32.562,0-59.054,26.491-59.054,59.053s26.491,59.054,59.054,59.054
					c32.562,0,59.053-26.491,59.053-59.054C-333.118,160.022-359.608,133.531-392.171,133.531z M-376.693,232.383
					c-10.482,0-19.263-7.541-21.402-17.576c-1.954,6.132-4.822,11.841-9.018,15.901l-1.46,1.413l-1.46-1.413
					c-14.824-14.342-13.079-49.257-12.997-50.737l0.055-0.991l0.8-0.587c0.121-0.088,1.703-1.228,4.34-2.282
					c-3.808-1.298-7.404-3.288-8.467-6.293l-1.015-2.869l3.042,0.069c6.287,0.142,11.064,1.415,14.281,3.793
					c0.099-5.018,1.053-11.603,5.117-13.868l2.538-1.414l0.547,2.853c0.753,3.93,0.855,7.334,0.325,10.208
					c2.436-1.35,5.048-2.365,7.395-2.365c0.844,0,1.638,0.13,2.361,0.386l2.948,1.044l-2.083,2.334
					c-2.589,2.901-5.17,5.063-7.724,6.485c1.168,0.517,2.322,1.124,3.458,1.824l0.935,0.576l0.06,1.096
					c0.029,0.526,0.268,5.283-0.102,11.837c1.038-3.975,1.6-7.864,1.677-10.015l-0.235-1.776v-1.63
					c0-6.471,6.384-11.523,13.497-11.523h0.501c0.154-2,0.09-4.042,1.718-5.896c1.813-2.063,5.284-3.204,7.284-3.204v4.199
					c0,0-3.133,0.655-4.114,1.758c-0.807,0.909-0.537,2.142-0.668,3.142h0.455c7.113,0,12.749,5.146,12.749,11.617
					c0,0,0.017,1.187,0.044,1.597c0.03,0.442,0.191,1.738,0.191,1.738c0.163,4.581,3.863,17.019,5.275,21.43
					c0.703,2.224,1.058,4.516,1.058,6.829C-354.787,222.378-364.614,232.383-376.693,232.383z"/>
				<path fill="#FFCC33" d="M-392.621,102.078c-56.149,0-91.198,41.486-91.198,91.914c0,50.785,34.333,91.914,91.556,91.914
					c57.222,0,91.914-41.129,91.914-91.914C-300.349,143.565-336.471,102.078-392.621,102.078z M-392.171,259.766
					c-37.045,0-67.182-30.138-67.182-67.182s30.138-67.181,67.182-67.181s67.181,30.138,67.181,67.181
					C-324.989,229.628-355.127,259.766-392.171,259.766z"/>
			</g>
		</g>
	</g>
	<g>
		<g>
			<path fill="#FFCC33" d="M-312.701-513.954h-69.165v71.96h-46.11v-244.523c38.425,0,76.85-0.35,115.275-0.35
				C-193.234-686.868-192.885-513.954-312.701-513.954z M-381.866-556.222h69.165c59.035,0,58.686-86.631,0-86.631h-69.165V-556.222
				z"/>
			<path fill="#FFCC33" d="M-152.713-686.169v244.174h-42.268v-244.174H-152.713z"/>
			<path fill="#FFCC33" d="M21.247-614.209h40.87v172.214H21.945l-2.096-25.151c-9.781,20.261-36.678,30.042-55.891,30.392
				c-51,0.349-88.727-31.09-88.727-91.522c0-59.384,39.473-90.474,89.775-90.124c23.055,0,45.062,10.829,54.843,27.945
				L21.247-614.209z M-82.151-528.277c0,32.836,22.706,52.398,51,52.398c67.069,0,67.069-104.446,0-104.446
				C-59.446-580.325-82.151-561.113-82.151-528.277z"/>
			<path fill="#FFCC33" d="M150.845-662.765v48.905h47.508v36.679h-47.857v74.405c0,16.418,9.083,24.452,22.356,24.452
				c6.638,0,14.322-2.096,20.61-5.24l11.877,36.329c-12.227,4.891-22.356,6.987-35.281,7.336
				c-37.378,1.397-61.83-19.911-61.83-62.877v-74.405H76.091v-36.679h32.137v-44.363L150.845-662.765z"/>
		</g>
		<g>
			<g>
				<g>
					<path fill="#FFCC33" d="M286.041-538.623c-0.031,1.076-0.061,2.911-0.017,5.262c1.787,0.226,4.645,0.518,7.071,0.455
						l0.092,4.199c-0.229,0.005-0.461,0.007-0.695,0.007c-2.216,0-4.587-0.215-6.32-0.416c0.152,2.966-0.021,6.352,0.464,9.886
						c1.287,0.369,2.587,0.884,5.587,0.884v4.199c-1,0-3.391-0.266-4.86-0.577c1.447,7.743,4.238,15.632,8.758,20.958
						c2.677-3.154,4.781-7.203,6.261-11.587c-0.84,0.161-1.668,0.291-2.459,0.324l-0.148-4.195c1.211-0.051,2.943-0.45,4.058-0.75
						c1.178-4.665,1.723-9.479,2.134-13.84c-1.747,0.312-4.744,0.624-6.744,0.624v-4.199c2,0,5.522-0.443,7.082-0.767
						c0.28-4.796,0.314-8.625,0.263-10.423c-3.333-1.863-6.76-2.807-10.28-2.807C291.396-541.386,287.639-539.546,286.041-538.623z"
						/>
				</g>
				<g>
					<path fill="#FFCC33" d="M339.223-540.128v-1.379c0-4.155-3.612-7.629-8.409-7.629h-5.176c-4.797,0-8.415,3.474-8.415,7.629
						v2.27v1.213v4.034c2-1.157,2.851-2.8,4.362-4.987c0.441-0.647,1.094-1.04,1.852-1.04c1.085,0,1.945,0.765,2.139,1.859
						c0.516,2.862,1.344,5.469,2.187,6.976c1.833-1.936,2.676-3.126,3.481-6.906c0.213-1.06,1.107-1.818,2.174-1.818
						c0.354,0,1.551,0.111,2.135,1.532c0.901,2.218,2.326,4.794,3.98,6.489c-0.01-3.281-0.255-5.619-0.26-6.119L339.223-540.128z"/>
					<path fill="#FFCC33" d="M345.071-515.386c-0.114-0.359-1.647-5.162-3.061-10.458l-0.917-0.247
						c-3.182-0.855-5.605-3.685-7.256-6.372c-0.955,2.004-2.153,3.247-3.74,4.898l-1.989,2.092l-1.435-0.825
						c-2.097-1.207-3.459-4.214-4.316-7.087c-3.312,3.634-6.387,5.234-6.548,5.316l-0.892,0.456
						c-1.464,5.695-3.253,11.329-3.517,12.155c-0.262,1.124-0.88,4.103-0.88,5.634c0,9.988,7.943,18.115,17.705,18.115
						c9.763,0,17.707-8.127,17.707-18.115C345.932-511.708,345.642-513.58,345.071-515.386z M333.418-496.67l-1.898-3.747
						c6.707-3.395,5.788-13.082,5.777-13.179l4.176-0.447C341.53-513.528,342.729-501.385,333.418-496.67z"/>
				</g>
			</g>
			<g>
				<path fill="#FFCC33" d="M312.747-586.362c-32.562,0-59.054,26.491-59.054,59.053c0,32.562,26.491,59.054,59.054,59.054
					c32.562,0,59.053-26.491,59.053-59.054C371.8-559.872,345.309-586.362,312.747-586.362z M328.225-487.51
					c-10.482,0-19.263-7.541-21.402-17.576c-1.954,6.132-4.822,11.841-9.018,15.901l-1.46,1.413l-1.46-1.413
					c-14.824-14.342-13.079-49.257-12.997-50.737l0.055-0.991l0.8-0.587c0.121-0.088,1.703-1.228,4.34-2.282
					c-3.808-1.298-7.404-3.288-8.467-6.293l-1.015-2.868l3.042,0.069c6.287,0.142,11.064,1.415,14.281,3.793
					c0.099-5.018,1.053-11.603,5.117-13.868l2.538-1.414l0.547,2.853c0.753,3.93,0.855,7.334,0.325,10.208
					c2.436-1.35,5.048-2.365,7.395-2.365c0.844,0,1.638,0.13,2.361,0.386l2.948,1.044l-2.083,2.334
					c-2.589,2.901-5.17,5.063-7.724,6.485c1.168,0.517,2.322,1.124,3.458,1.824l0.935,0.576l0.06,1.096
					c0.029,0.526,0.268,5.283-0.102,11.837c1.038-3.975,1.641-7.864,1.718-10.015l-0.194-1.776v-1.63
					c0-6.471,6.302-11.629,13.415-11.629h0.501c0.154-2,0.131-3.989,1.759-5.843c1.813-2.063,5.325-3.15,7.325-3.15v4.199
					c0,0-3.174,0.601-4.155,1.705c-0.807,0.909-0.578,2.089-0.709,3.089h0.455c7.113,0,12.749,5.199,12.749,11.671
					c0,0,0.017,1.214,0.044,1.624c0.03,0.442,0.191,1.751,0.191,1.751c0.163,4.581,3.863,17.026,5.275,21.436
					c0.703,2.224,1.058,4.519,1.058,6.833C350.131-497.518,340.304-487.51,328.225-487.51z"/>
				<path fill="#FFCC33" d="M312.297-617.815c-56.149,0-91.198,41.486-91.198,91.914c0,50.785,34.333,91.914,91.556,91.914
					c57.222,0,91.914-41.129,91.914-91.914C404.569-576.329,368.447-617.815,312.297-617.815z M312.747-460.127
					c-37.045,0-67.182-30.138-67.182-67.182s30.138-67.181,67.182-67.181s67.181,30.138,67.181,67.181
					C379.928-490.265,349.79-460.127,312.747-460.127z"/>
			</g>
		</g>
	</g>
	<g>
		<g>
			<g>
				<path fill="#FFCC33" d="M355.966,431.607c-0.164,5.783-0.327,15.649-0.093,28.286c9.606,1.212,24.97,2.785,38.014,2.448
					l0.494,22.575c-1.231,0.027-2.478,0.038-3.736,0.038c-11.914,0-24.658-1.156-33.976-2.236
					c0.817,15.945-0.598,34.149,2.007,53.147c6.917,1.985,14.547,4.753,29.547,4.753v22.575c-4,0-17.743-1.431-25.642-3.102
					c7.777,41.625,23.028,84.035,47.324,112.671c14.389-16.953,25.822-38.722,33.779-62.291c-4.516,0.867-8.904,1.563-13.159,1.742
					l-0.765-22.554c6.509-0.274,15.839-2.421,21.831-4.033c6.332-25.081,8.969-50.961,11.179-74.404
					c-9.391,1.68-25.548,3.353-36.548,3.353V492c11,0,29.989-2.381,38.373-4.126c1.508-25.784,1.837-46.367,1.563-56.031
					c-17.92-10.014-36.265-15.088-55.19-15.088C384.674,416.756,364.555,426.646,355.966,431.607z"/>
			</g>
			<g>
				<path fill="#FFCC33" d="M641.223,423.515V416.1c0-22.339-18.775-40.237-44.564-40.237h-27.826
					c-25.789,0-45.61,17.899-45.61,40.237v12.204v6.523v21.688c11-6.219,15.511-15.05,23.638-26.811
					c2.37-3.478,5.976-5.59,10.051-5.59c5.832,0,10.502,4.112,11.545,9.992c2.774,15.389,7.248,29.401,11.779,37.501
					c9.852-10.406,14.398-16.808,18.725-37.125c1.145-5.698,5.955-9.772,11.695-9.772c1.903,0,8.339,0.597,11.478,8.235
					c4.843,11.922,12.508,25.773,21.399,34.884c-0.054-17.641-1.69-30.209-1.717-32.896L641.223,423.515z"/>
				<path fill="#FFCC33" d="M673.307,556.528c-0.613-1.93-8.853-27.751-16.458-56.223l-4.929-1.328
					c-17.109-4.596-30.132-19.812-39.006-34.255c-5.133,10.772-11.572,17.458-20.108,26.332l-10.691,11.245l-7.713-4.434
					c-11.272-6.488-18.598-22.656-23.204-38.098c-17.807,19.538-34.336,28.138-35.201,28.579l-4.795,2.451
					c-7.869,30.616-17.49,60.904-18.909,65.344c-1.408,6.042-4.73,22.059-4.73,30.288c0,53.696,42.699,97.384,95.181,97.384
					c52.487,0,95.192-43.688,95.192-97.384C677.935,576.302,676.376,566.24,673.307,556.528z M610.661,657.148l-10.202-20.146
					c36.056-18.254,31.116-70.327,31.057-70.848l22.451-2.403C654.268,566.52,660.713,631.799,610.661,657.148z"/>
			</g>
		</g>
		<g>
			<path fill="#FFCC33" d="M499.534,174.964c-175.054,0-317.47,142.414-317.47,317.464c0,175.053,142.416,317.47,317.47,317.47
				c175.053,0,317.464-142.416,317.464-317.47C816.998,317.377,674.587,174.964,499.534,174.964z M582.743,706.388
				c-56.35,0-103.559-40.542-115.058-94.49c-10.507,32.965-25.923,63.656-48.482,85.481l-7.847,7.595l-7.848-7.595
				c-79.695-77.099-70.311-264.805-69.87-272.76l0.296-5.327l4.3-3.155c0.649-0.475,9.153-6.604,23.33-12.266
				c-20.474-6.979-39.803-17.678-45.518-33.83l-5.456-15.421l16.356,0.371c33.796,0.765,59.48,7.608,76.773,20.393
				c0.533-26.974,5.66-62.377,27.508-74.552l13.642-7.603l2.94,15.338c4.049,21.129,4.599,39.43,1.747,54.88
				c13.098-7.256,27.135-12.716,39.753-12.716c4.536,0,8.804,0.699,12.69,2.075l15.851,5.612l-11.196,12.545
				c-13.919,15.595-27.793,27.216-41.522,34.863c6.278,2.78,12.481,6.04,18.592,9.806l5.026,3.096l0.322,5.891
				c0.157,2.829,1.441,28.4-0.55,63.634c5.583-21.368,8.577-42.278,8.989-53.842l-1.29-9.549V416.1
				c0-34.79,34.372-62.237,72.61-62.237h2.693c0.83-10,0.135-21.585,8.887-31.551c9.745-11.091,28.81-17.077,38.81-17.077v22.575
				c0,0-16.493,3.373-21.766,9.307c-4.34,4.886-2.54,12.746-3.241,16.746h2.444c38.238,0,68.54,27.81,68.54,62.6
				c0,0,0.089,6.454,0.238,8.66c0.161,2.376,1.027,9.379,1.027,9.379c0.876,24.628,20.769,91.513,28.359,115.222
				c3.779,11.954,5.687,24.286,5.687,36.724C700.51,652.593,647.679,706.388,582.743,706.388z"/>
			<path fill="#FFCC33" d="M497.114,5.876C195.258,5.876,6.837,228.905,6.837,499.999c0,273.018,184.573,494.125,492.201,494.125
				c307.623,0,494.125-221.107,494.125-494.125C993.163,228.905,798.974,5.876,497.114,5.876z M499.534,853.596
				c-199.15,0-361.169-162.019-361.169-361.169c0-199.144,162.019-361.163,361.169-361.163
				c199.144,0,361.163,162.019,361.163,361.163C860.697,691.577,698.678,853.596,499.534,853.596z"/>
		</g>
	</g>
</g>
</svg>
