<?xml version="1.0" encoding="iso-8859-1"?>
<!-- Generator: Adobe Illustrator 17.0.0, SVG Export Plug-In . SVG Version: 6.00 Build 0)  -->
<!DOCTYPE svg PUBLIC "-//W3C//DTD SVG 1.1//EN" "http://www.w3.org/Graphics/SVG/1.1/DTD/svg11.dtd">
<svg version="1.1" id="Layer_1" xmlns="http://www.w3.org/2000/svg" xmlns:xlink="http://www.w3.org/1999/xlink" x="0px" y="0px"
	 width="1024px" height="1024px" viewBox="0 0 1024 1024" style="enable-background:new 0 0 1024 1024;" xml:space="preserve">
<g>
	<path d="M929.1,92.866c1.05,3.348,1.978,4.925,1.978,6.503c0.064,275.121,0.064,550.242-0.001,825.363
		c0,1.573-0.946,3.146-1.503,4.884c-1.769,0.551-3.347,1.474-4.925,1.474c-275.121,0.061-550.242,0.059-825.363-0.009
		c-1.572,0-3.144-0.952-4.897-1.517c-0.546-1.75-1.47-3.329-1.47-4.908c-0.061-275.121-0.058-550.242,0.01-825.364
		c0-1.569,0.95-3.138,1.512-4.879c1.766-0.556,3.344-1.487,4.922-1.487C375.605,92.863,651.848,92.866,929.1,92.866z
		 M852.815,171.861c-8.568-0.265-14.76-0.62-20.952-0.623c-71.638-0.039-143.276-0.055-214.914,0.014
		c-8.56,0.008-18.111-1.721-25.413,1.461c-7.918,3.45-13.901,11.543-20.444,17.904c-11.068,10.762-21.913,21.754-32.646,32.444
		c-17.962,0-35.107,0-53.103,0c-12.331-12.31-24.794-24.927-37.452-37.346c-17.359-17.031-10.489-14.35-34.079-14.453
		c-40.69-0.177-81.381-0.049-122.072-0.049c-34.96,0-69.919-0.061-104.879,0.074c-4.949,0.019-10.373-1.444-15.818,3.87
		c0,6.301,0,13.688,0,21.075c0,210.331,0,420.661,0.002,630.992c0,5.158-0.23,10.334,0.13,15.467
		c0.225,3.212,1.355,6.36,2.083,9.556c4.297,0.273,7.712,0.682,11.128,0.68c221.205-0.152,442.411-0.336,663.616-0.534
		c0.559,0,1.176-0.131,1.66-0.394c0.483-0.263,0.834-0.77,3.151-3.036C852.817,625.241,852.814,399.67,852.815,171.861z"/>
	<path d="M433.598,747.011c17.713-165.51,35.314-330.555,53.189-496.073c17.197,0,32.544,0,48.611,0
		c1.045,3.391,2.555,6.486,2.907,9.708c3.859,35.311,7.505,70.645,11.275,105.966c4.075,38.168,8.236,76.326,12.33,114.492
		c3.911,36.458,7.766,72.922,11.676,109.381c4.155,38.736,8.379,77.464,12.504,116.203c1.452,13.633,2.699,27.288,3.9,39.502
		c-26.501,26.45-52.01,51.911-78.054,77.905c-0.492-0.193-2.432-0.385-3.493-1.453C483.802,797.858,459.255,772.979,433.598,747.011
		z"/>
</g>
</svg>
